<svg aria-hidden="true" style="position:absolute;width:0;height:0" xmlns="http://www.w3.org/2000/svg" overflow="hidden"><defs><symbol id="icon_angle-arrow" viewBox="0 0 18 32"><path d="M0 29.349c.004.288.126.547.32.731l1.554 1.6a.995.995 0 001.462.001l.001-.001 14.629-14.949a.995.995 0 00.001-1.462l-.001-.001L3.337.319A.995.995 0 001.875.318l-.001.001-1.554 1.6a1.06 1.06 0 00-.32.73v.002c.003.295.125.562.32.754l12.343 12.594L.32 28.593a1.073 1.073 0 00-.32.754v.001z"/></symbol><symbol id="icon_code" viewBox="0 0 43 32"><path d="M13.288 26.236a.744.744 0 000-1.07l-9.134-9.169 9.133-9.169a.755.755 0 000-1.078l-1.162-1.159a.737.737 0 00-1.069 0L.227 15.459a.755.755 0 000 1.078l10.829 10.868a.737.737 0 001.069 0zM27.022 1.344a.755.755 0 00-.506-.933L26.511.41 25.07.007a.746.746 0 00-.905.51l-.001.005-8.668 30.124a.757.757 0 00.506.933l.005.001 1.441.394a.734.734 0 00.905-.502l.001-.005zM42.29 16.535a.755.755 0 000-1.078L31.461 4.589a.737.737 0 00-1.069 0L29.23 5.748a.755.755 0 000 1.078l9.132 9.169-9.134 9.169a.744.744 0 000 1.07l1.162 1.167a.737.737 0 001.069 0z"/></symbol><symbol id="icon_envelope-o" viewBox="0 0 44 32"><path d="M40.521 28.364a.783.783 0 01-.78.727H3.895a.784.784 0 01-.78-.725V10.908a13.408 13.408 0 001.649 1.489l.032.024c3.491 2.473 6.982 5.033 10.374 7.68a11.564 11.564 0 006.566 3.165l.058.006h.047a11.59 11.59 0 006.627-3.174l-.003.003c3.386-2.647 6.892-5.207 10.374-7.68.62-.472 1.17-.967 1.675-1.506l.007-.007v17.455zm0-23.884a8.84 8.84 0 01-3.554 5.596l-.027.018c-3.264 2.385-6.525 4.8-9.766 7.185a12.063 12.063 0 01-5.247 3.063l-.085.02h-.047a12.137 12.137 0 01-5.336-3.084l.001.001c-3.238-2.385-6.502-4.8-9.763-7.185-2.106-1.423-3.495-3.769-3.581-6.445v-.013a.783.783 0 01.78-.727h35.846c.925 0 .78.989.78 1.571zm3.115-.844A3.783 3.783 0 0039.735 0h.006H3.895A3.782 3.782 0 000 3.629v24.734a3.783 3.783 0 003.901 3.636h-.006 35.846l.116.002c2.038 0 3.7-1.612 3.779-3.631V3.636z"/></symbol><symbol id="icon_fb" viewBox="0 0 17 32"><path d="M16.2 0h-4.036a7.2 7.2 0 00-7.462 7.91L4.7 7.88v3.62H.64a.65.65 0 00-.634.65v.011-.001 5.27a.65.65 0 00.633.65H4.7v13.27a.65.65 0 00.633.65h5.295a.65.65 0 00.636-.65v-.011.001-13.26H16a.65.65 0 00.634-.65v-.011.001-5.261a.66.66 0 00-.633-.659h-4.747V8.42a1.824 1.824 0 012.229-2.217L13.47 6.2h2.72a.65.65 0 00.634-.65v-.011.001V.649A.65.65 0 0016.201 0H16.2z"/></symbol><symbol id="icon_google" viewBox="0 0 34 32"><path d="M1.763 7.979a6.34 6.34 0 002.768 5.812l.022.014a7.998 7.998 0 004.036 1.078l.165-.002h-.008.523a5.014 5.014 0 001.117 3.618l-.007-.009h-.063c-2.427 0-10.343.507-10.343 6.776 0 6.396 7.272 6.733 8.73 6.733h.479a13.892 13.892 0 005.692-1.217l-.088.035c2.61-1.122 4.404-3.671 4.404-6.639a6.79 6.79 0 00-.013-.43l.001.02a8.623 8.623 0 00-3.864-6.502l-.033-.02a4.217 4.217 0 01-1.864-2.271l-.009-.03a3.072 3.072 0 011.421-1.955l.014-.008a6.899 6.899 0 002.52-5.738l.001.018c0-2.66-.357-4.433-2.548-5.551a6.02 6.02 0 011.418-.252l.017-.001c1.188-.169 2.926-.338 2.926-1.266v-.19h-8.654c-.093 0-8.762.317-8.762 7.979zm13.977 16.38c.165 2.554-2.111 4.454-5.501 4.686-3.455.253-6.299-1.267-6.465-3.821a4.124 4.124 0 011.564-3.37l.009-.007a7.32 7.32 0 014.271-1.688l.02-.001a5.215 5.215 0 01.587-.021h-.005a4.957 4.957 0 015.517 4.195l.003.027zM13.48 6.227c.844 2.892-.435 5.91-2.478 6.459a2.701 2.701 0 01-.681.085h-.046.002a5.312 5.312 0 01-4.411-4.316l-.005-.032a5.938 5.938 0 01-.269-1.788c0-.737.131-1.443.371-2.096l-.014.042a3.394 3.394 0 012.165-2.21l.024-.007c.216-.064.465-.102.722-.106h.002c2.261 0 3.715.908 4.616 3.968zm14.588 6.29V7.05H24.48v5.467h-5.649v3.441h5.649v5.467h3.588v-5.467h5.651v-3.441h-5.651z"/></symbol><symbol id="icon_in" viewBox="0 0 32 32"><path d="M7.271 10.4H.396V32h6.875V10.4zm.436-6.674a3.856 3.856 0 10-3.919 3.725h.044A3.625 3.625 0 007.706 3.72v.006zM32 19.611c0-6.629-3.376-9.714-7.895-9.714a6.758 6.758 0 00-6.213 3.598l-.018.037h.041v-3.131h-6.857s.082 2.034 0 21.6h6.857V19.955a5.685 5.685 0 01.239-1.823l-.01.04a3.785 3.785 0 013.516-2.606h.004c2.48 0 3.479 1.989 3.479 4.891V32H32V19.611z"/></symbol><symbol id="icon_letter" viewBox="0 0 34 32"><path d="M14.988 8.976c1.248 2.519 2.534 5.632 3.63 8.833l.174.583c-.393.024-.786.048-1.178.048-2.047 0-4.094-.064-6.14-.088zM0 32l.272.002a22.8 22.8 0 003.747-.308l-.132.018c.279-.072.617-.131.962-.166l.03-.002c2.4 0 4.818.416 7.215.416a4.96 4.96 0 00.042-.563v-.005c0-.416 0-.808-.021-1.208-1.178-.16-4.218-.224-4.218-1.832 0-.792 2.088-6.248 2.626-7.456l9.303.04c.33.856 2.998 7.04 2.998 7.792 0 .768-1.096.92-1.654 1.04l-2.709.584c-.051.456-.08.985-.08 1.521v.109-.006c2.708-.08 5.416-.312 8.125-.312 2.625 0 5.25.336 7.876.336 0-.184.021-.352.021-.544a7.784 7.784 0 00-.132-1.232l.008.048c-.972-.376-2.874-.504-3.556-1.04a3.67 3.67 0 01-.712-1.167l-.008-.025c-1.034-2.12-1.76-4.352-2.688-6.52-1.571-3.664-2.998-7.392-4.548-11.08l-4.24-10a3.664 3.664 0 00-.237-.457L18.3 0h-2.646L9.865 15.08 4.961 27.92c-.868 2.248-2.977 1.832-4.92 2.432z"/></symbol><symbol id="icon_map-marker" viewBox="0 0 23 32"><path d="M16.941 10.673a5.647 5.647 0 11-5.647-5.346l.145-.002a5.504 5.504 0 015.502 5.34v.008zm5.647 0C22.233 4.712 17.312.012 11.294.012S.355 4.712.001 10.641L0 10.672a8.277 8.277 0 00.75 3.779l-.021-.052L8.78 30.512A2.777 2.777 0 0011.237 32l.061-.001h-.003.043a2.834 2.834 0 002.487-1.473l.007-.015 8.028-16.113a8.194 8.194 0 00.728-3.742v.015z"/></symbol><symbol id="icon_mobile-phone" viewBox="0 0 19 32"><path d="M11.6 28.8a2 2 0 11-2-2 2.003 2.003 0 012 2zm5.2-4a.818.818 0 01-.799.8H3.2a.818.818 0 01-.8-.799V7.2a.818.818 0 01.799-.8H16c.438.01.79.362.8.799V24.8zM12 3.6v.005a.395.395 0 01-.395.395H7.6a.4.4 0 110-.8h4.005c.218 0 .395.177.395.395V3.6zm7.2-.4A3.226 3.226 0 0016.001 0H3.2A3.225 3.225 0 000 3.199V28.8A3.225 3.225 0 003.199 32H16a3.226 3.226 0 003.2-3.199V3.2z"/></symbol><symbol id="icon_support" viewBox="0 0 32 32"><path d="M16.007-.007C7.163-.007-.006 7.162-.006 16.006s7.169 16.013 16.013 16.013c8.844 0 16.013-7.169 16.013-16.013v-.008c0-8.84-7.166-16.006-16.006-16.006h-.008zm0 2.282c2.361.004 4.583.599 6.526 1.644l-.074-.036-3.463 3.47c-.89-.317-1.916-.5-2.986-.5s-2.096.183-3.05.52l.064-.02-3.463-3.47c1.867-1.009 4.086-1.603 6.444-1.608h.001zM3.897 22.452C2.884 20.584 2.289 18.361 2.289 16s.595-4.584 1.644-6.525l-.036.073 3.463 3.47c-.317.889-.5 1.914-.5 2.982s.183 2.094.52 3.046l-.02-.064zm12.11 7.273a13.77 13.77 0 01-6.519-1.644l.074.036 3.463-3.47c.89.317 1.916.5 2.986.5s2.096-.183 3.05-.52l-.064.02 3.463 3.47c-1.869 1.009-4.091 1.604-6.451 1.608h-.001zm0-6.866A6.859 6.859 0 1122.873 16a6.86 6.86 0 01-6.861 6.859h-.005zm8.654-3.876c.313-.889.494-1.915.494-2.983s-.181-2.093-.513-3.047l.02.065 3.463-3.47c1.013 1.868 1.608 4.091 1.608 6.452s-.595 4.584-1.644 6.525l.036-.073z"/></symbol><symbol id="icon_tw" viewBox="0 0 40 32"><path d="M39.35.583a16.172 16.172 0 01-5.176 1.959l-.104.017A8.387 8.387 0 0028.029 0h-.024.001l-.11-.001a8.202 8.202 0 00-8.201 8.077v.006c0 .656.079 1.294.227 1.905l-.011-.055A23.878 23.878 0 012.812 1.504l-.029-.035a7.861 7.861 0 00-1.125 4.077 7.946 7.946 0 003.665 6.698l.032.019a8.495 8.495 0 01-3.807-1.036l.045.022v.101a8.142 8.142 0 006.613 7.922l.051.008a8.662 8.662 0 01-2.188.279h-.014a7.999 7.999 0 01-1.604-.161l.051.009c1.14 3.267 4.174 5.578 7.755 5.625h.006a17.354 17.354 0 01-10.421 3.446 17.85 17.85 0 01-1.959-.108l.079.007C3.574 30.651 7.967 32 12.675 32h.028-.001c.149.003.326.005.502.005 12.726 0 23.052-10.272 23.139-22.977V9.02l-.028-1.064a16.156 16.156 0 004.118-4.102l.035-.053a17.02 17.02 0 01-4.686 1.258l-.085.008A8.238 8.238 0 0039.333.64l.017-.058z"/></symbol></defs></svg>