<svg aria-hidden="true" style="position: absolute; width: 0; height: 0; overflow: hidden;" version="1.1" 
  xmlns="http://www.w3.org/2000/svg" 
  xmlns:xlink="http://www.w3.org/1999/xlink">
  <defs>
    <symbol id="icon_angle-arrow" viewBox="0 0 18 32">
      <path d="M0 29.349c0.004 0.288 0.126 0.547 0.32 0.731l0 0 1.554 1.6c0.183 0.197 0.443 0.32 0.731 0.32s0.549-0.123 0.731-0.319l0.001-0.001 14.629-14.949c0.197-0.183 0.32-0.443 0.32-0.731s-0.123-0.549-0.319-0.731l-0.001-0.001-14.629-14.949c-0.183-0.197-0.443-0.32-0.731-0.32s-0.549 0.123-0.731 0.319l-0.001 0.001-1.554 1.6c-0.191 0.187-0.312 0.444-0.32 0.73l-0 0.002c0.003 0.295 0.125 0.562 0.32 0.754l0 0 12.343 12.594-12.343 12.594c-0.195 0.193-0.317 0.459-0.32 0.754v0.001z"></path>
    </symbol>
    <symbol id="icon_code" viewBox="0 0 43 32">
      <path d="M13.288 26.236c0.14-0.136 0.226-0.325 0.226-0.535s-0.087-0.4-0.226-0.535l-0-0-9.134-9.169 9.133-9.169c0.14-0.137 0.226-0.328 0.226-0.539s-0.087-0.402-0.226-0.539l-0-0-1.162-1.159c-0.135-0.141-0.324-0.229-0.535-0.229s-0.4 0.088-0.534 0.229l-0 0-10.829 10.868c-0.14 0.137-0.226 0.328-0.226 0.539s0.087 0.402 0.226 0.539l0 0 10.829 10.868c0.135 0.141 0.324 0.229 0.535 0.229s0.4-0.088 0.534-0.229l0-0zM27.022 1.344c0.019-0.063 0.030-0.136 0.030-0.211 0-0.341-0.226-0.628-0.536-0.722l-0.005-0.001-1.441-0.403c-0.057-0.016-0.122-0.025-0.19-0.025-0.338 0-0.624 0.226-0.715 0.535l-0.001 0.005-8.668 30.124c-0.019 0.063-0.029 0.134-0.029 0.209 0 0.341 0.225 0.629 0.535 0.724l0.005 0.001 1.441 0.394c0.060 0.018 0.129 0.028 0.2 0.028 0.334 0 0.617-0.224 0.705-0.53l0.001-0.005zM42.29 16.535c0.14-0.137 0.226-0.328 0.226-0.539s-0.087-0.402-0.226-0.539l-0-0-10.829-10.868c-0.135-0.141-0.324-0.229-0.535-0.229s-0.4 0.088-0.534 0.229l-0 0-1.162 1.159c-0.14 0.137-0.226 0.328-0.226 0.539s0.087 0.402 0.226 0.539l0 0 9.132 9.169-9.134 9.169c-0.14 0.136-0.226 0.325-0.226 0.535s0.087 0.4 0.226 0.535l0 0 1.162 1.167c0.135 0.141 0.324 0.229 0.535 0.229s0.4-0.088 0.534-0.229l0-0z"></path>
    </symbol>
    <symbol id="icon_envelope-o" viewBox="0 0 44 32">
      <path d="M40.521 28.364c-0.030 0.407-0.367 0.727-0.78 0.727h-35.846c-0.412-0.001-0.75-0.32-0.78-0.725l-0-0.003v-17.455c0.512 0.545 1.061 1.041 1.649 1.489l0.032 0.024c3.491 2.473 6.982 5.033 10.374 7.68 1.747 1.69 4.028 2.838 6.566 3.165l0.058 0.006h0.047c2.596-0.333 4.878-1.48 6.627-3.174l-0.003 0.003c3.386-2.647 6.892-5.207 10.374-7.68 0.62-0.472 1.17-0.967 1.675-1.506l0.007-0.007v17.455zM40.521 4.48c-0.436 2.332-1.739 4.3-3.554 5.596l-0.027 0.018c-3.264 2.385-6.525 4.8-9.766 7.185-1.439 1.43-3.237 2.5-5.247 3.063l-0.085 0.020h-0.047c-2.096-0.584-3.895-1.654-5.336-3.084l0.001 0.001c-3.238-2.385-6.502-4.8-9.763-7.185-2.106-1.423-3.495-3.769-3.581-6.445l-0-0.013c0.030-0.407 0.367-0.727 0.78-0.727h35.846c0.925 0 0.78 0.989 0.78 1.571zM43.636 3.636c-0.079-2.026-1.741-3.638-3.779-3.638-0.041 0-0.082 0.001-0.122 0.002l0.006-0h-35.846c-0.035-0.001-0.075-0.002-0.116-0.002-2.038 0-3.7 1.612-3.779 3.631l-0 0.007v24.727c0.079 2.026 1.741 3.638 3.779 3.638 0.041 0 0.082-0.001 0.122-0.002l-0.006 0h35.846c0.035 0.001 0.075 0.002 0.116 0.002 2.038 0 3.7-1.612 3.779-3.631l0-0.007v-24.727z"></path>
    </symbol>
    <symbol id="icon_fb" viewBox="0 0 17 32">
      <path d="M16.2 0h-4.036c-0.089-0.004-0.192-0.006-0.297-0.006-3.976 0-7.2 3.224-7.2 7.2 0 0.242 0.012 0.48 0.035 0.716l-0.002-0.030v3.62h-4.060c-0.352 0.009-0.634 0.296-0.634 0.65 0 0.004 0 0.007 0 0.011v-0.001 5.26c-0 0.003-0 0.007-0 0.010 0 0.353 0.282 0.641 0.633 0.65l0.001 0h4.060v13.26c-0 0.003-0 0.007-0 0.010 0 0.353 0.282 0.641 0.633 0.65l0.001 0h5.294c0.353-0.008 0.636-0.296 0.636-0.65 0-0.004-0-0.007-0-0.011v0.001-13.26h4.736c0.352-0.009 0.634-0.296 0.634-0.65 0-0.004-0-0.007-0-0.011v0.001-5.26c0-0 0-0 0-0.001 0-0.355-0.281-0.645-0.633-0.659l-0.001-0h-4.746v-3.080c-0.036-0.136-0.057-0.291-0.057-0.452 0-1.007 0.817-1.824 1.824-1.824 0.159 0 0.314 0.020 0.462 0.059l-0.013-0.003h2.72c0.352-0.009 0.634-0.296 0.634-0.65 0-0.004-0-0.007-0-0.011v0.001-4.88c0-0.003 0-0.007 0-0.011 0-0.35-0.276-0.635-0.623-0.649l-0.001-0z"></path>
    </symbol>
    <symbol id="icon_google" viewBox="0 0 34 32">
      <path d="M1.763 7.979c-0.015 0.166-0.024 0.358-0.024 0.553 0 2.188 1.107 4.118 2.792 5.259l0.022 0.014c1.158 0.678 2.55 1.078 4.036 1.078 0.055 0 0.11-0.001 0.165-0.002l-0.008 0h0.523c-0.012 0.129-0.019 0.28-0.019 0.432 0 1.209 0.426 2.318 1.136 3.186l-0.007-0.009h-0.063c-2.427 0-10.343 0.507-10.343 6.776 0 6.396 7.272 6.733 8.73 6.733h0.479c2.029-0.002 3.955-0.437 5.692-1.217l-0.088 0.035c2.61-1.122 4.404-3.671 4.404-6.639 0-0.145-0.004-0.288-0.013-0.43l0.001 0.020c-0.231-2.739-1.712-5.089-3.864-6.502l-0.033-0.020c-0.876-0.515-1.538-1.316-1.864-2.271l-0.009-0.030c0.195-0.842 0.717-1.536 1.421-1.955l0.014-0.008c1.55-1.276 2.531-3.195 2.531-5.343 0-0.133-0.004-0.264-0.011-0.395l0.001 0.018c0-2.66-0.357-4.433-2.548-5.551 0.422-0.132 0.912-0.222 1.418-0.252l0.017-0.001c1.188-0.169 2.926-0.338 2.926-1.266v-0.19h-8.654c-0.093 0-8.762 0.317-8.762 7.979zM15.74 24.359c0.165 2.554-2.111 4.454-5.501 4.686-3.455 0.253-6.299-1.267-6.465-3.821-0.001-0.039-0.002-0.085-0.002-0.131 0-1.313 0.612-2.482 1.566-3.239l0.009-0.007c1.162-0.971 2.646-1.593 4.271-1.688l0.020-0.001c0.146-0.014 0.315-0.022 0.486-0.022 0.034 0 0.068 0 0.101 0.001l-0.005-0c0.184-0.024 0.397-0.038 0.613-0.038 2.492 0 4.554 1.838 4.904 4.233l0.003 0.027zM13.48 6.227c0.844 2.892-0.435 5.91-2.478 6.459-0.204 0.054-0.439 0.085-0.681 0.085-0.015 0-0.031-0-0.046-0l0.002 0c-2.258-0.358-4.023-2.101-4.411-4.316l-0.005-0.032c-0.171-0.535-0.269-1.15-0.269-1.788 0-0.737 0.131-1.443 0.371-2.096l-0.014 0.042c0.333-1.054 1.14-1.871 2.165-2.21l0.024-0.007c0.216-0.064 0.465-0.102 0.722-0.106l0.002-0c2.261 0 3.715 0.908 4.616 3.968zM28.068 12.517v-5.467h-3.588v5.467h-5.649v3.441h5.649v5.467h3.588v-5.467h5.651v-3.441h-5.651z"></path>
    </symbol>
    <symbol id="icon_in" viewBox="0 0 32 32">
      <path d="M7.271 10.4h-6.875v21.6h6.875v-21.6zM7.707 3.726c0.001-0.039 0.002-0.084 0.002-0.13 0-2.13-1.726-3.856-3.856-3.856s-3.856 1.726-3.856 3.856c0 2.108 1.691 3.821 3.791 3.855l0.003 0h0.041c0.075 0.006 0.163 0.009 0.251 0.009 2.002 0 3.625-1.623 3.625-3.625 0-0.038-0.001-0.077-0.002-0.115l0 0.006zM32 19.611c0-6.629-3.376-9.714-7.895-9.714-0.070-0.003-0.152-0.004-0.234-0.004-2.593 0-4.845 1.459-5.979 3.602l-0.018 0.037h0.041v-3.131h-6.857s0.082 2.034 0 21.6h6.857v-12.046c-0.002-0.052-0.003-0.113-0.003-0.174 0-0.573 0.084-1.127 0.242-1.649l-0.010 0.040c0.501-1.504 1.881-2.574 3.516-2.606l0.004-0c2.48 0 3.479 1.989 3.479 4.891v11.543h6.857v-12.389z"></path>
    </symbol>
    <symbol id="icon_letter" viewBox="0 0 34 32">
      <path d="M14.988 8.976c1.248 2.519 2.534 5.632 3.63 8.833l0.174 0.583c-0.393 0.024-0.786 0.048-1.178 0.048-2.047 0-4.094-0.064-6.14-0.088zM0 32c0.081 0.001 0.176 0.002 0.272 0.002 1.276 0 2.528-0.105 3.747-0.308l-0.132 0.018c0.279-0.072 0.617-0.131 0.962-0.166l0.030-0.002c2.4 0 4.818 0.416 7.215 0.416 0.023-0.167 0.038-0.363 0.042-0.563l0-0.005c0-0.416 0-0.808-0.021-1.208-1.178-0.16-4.218-0.224-4.218-1.832 0-0.792 2.088-6.248 2.626-7.456l9.303 0.040c0.33 0.856 2.998 7.040 2.998 7.792 0 0.768-1.096 0.92-1.654 1.040l-2.709 0.584c-0.051 0.456-0.080 0.985-0.080 1.521 0 0.036 0 0.072 0 0.109l-0-0.006c2.708-0.080 5.416-0.312 8.125-0.312 2.625 0 5.25 0.336 7.876 0.336 0-0.184 0.021-0.352 0.021-0.544-0.012-0.427-0.057-0.835-0.132-1.232l0.008 0.048c-0.972-0.376-2.874-0.504-3.556-1.040-0.303-0.335-0.548-0.731-0.712-1.167l-0.008-0.025c-1.034-2.12-1.76-4.352-2.688-6.52-1.571-3.664-2.998-7.392-4.548-11.080l-4.24-10c-0.076-0.174-0.152-0.318-0.237-0.457l0.010 0.017h-2.646l-5.789 15.080-4.904 12.84c-0.868 2.248-2.977 1.832-4.92 2.432z"></path>
    </symbol>
    <symbol id="icon_map-marker" viewBox="0 0 23 32">
      <path d="M16.941 10.673c0.005 0.090 0.008 0.195 0.008 0.301 0 3.119-2.528 5.647-5.647 5.647s-5.647-2.528-5.647-5.647c0-3.116 2.524-5.642 5.639-5.647h0c0.043-0.001 0.094-0.002 0.145-0.002 2.985 0 5.415 2.376 5.502 5.34l0 0.008zM22.588 10.673c-0.355-5.961-5.276-10.661-11.294-10.661s-10.939 4.7-11.293 10.629l-0.001 0.031c-0.004 0.092-0.006 0.2-0.006 0.309 0 1.239 0.27 2.414 0.756 3.47l-0.021-0.052 8.051 16.113c0.473 0.891 1.395 1.488 2.457 1.488 0.020 0 0.041-0 0.061-0.001l-0.003 0c0.013 0 0.028 0 0.043 0 1.072 0 2.005-0.595 2.487-1.473l0.007-0.015 8.028-16.113c0.464-1.005 0.734-2.18 0.734-3.418 0-0.108-0.002-0.217-0.006-0.324l0 0.015z"></path>
    </symbol>
    <symbol id="icon_mobile-phone" viewBox="0 0 19 32">
      <path d="M11.6 28.8c0 1.105-0.895 2-2 2s-2-0.895-2-2c0-1.105 0.895-2 2-2v0c1.104 0.002 1.998 0.896 2 2v0zM16.8 24.8c-0.010 0.438-0.362 0.79-0.799 0.8l-0.001 0h-12.8c-0.438-0.010-0.79-0.362-0.8-0.799l-0-0.001v-17.6c0.010-0.438 0.362-0.79 0.799-0.8l0.001-0h12.8c0.438 0.010 0.79 0.362 0.8 0.799l0 0.001v17.6zM12 3.6c0 0.001 0 0.003 0 0.005 0 0.218-0.177 0.395-0.395 0.395-0.002 0-0.003 0-0.005-0h-4c-0.221 0-0.4-0.179-0.4-0.4s0.179-0.4 0.4-0.4v0h4c0.001-0 0.003-0 0.005-0 0.218 0 0.395 0.177 0.395 0.395 0 0.002 0 0.003-0 0.005v-0zM19.2 3.2c-0.014-1.762-1.439-3.186-3.199-3.2h-12.801c-1.762 0.014-3.186 1.438-3.2 3.199v25.601c0.014 1.762 1.438 3.186 3.199 3.2h12.801c1.762-0.014 3.186-1.439 3.2-3.199v-25.601z"></path>
    </symbol>
    <symbol id="icon_support" viewBox="0 0 32 32">
      <path d="M16.007-0.007c-8.844 0-16.013 7.169-16.013 16.013s7.169 16.013 16.013 16.013c8.844 0 16.013-7.169 16.013-16.013 0-0.002 0-0.005 0-0.007v0c0-0 0-0 0-0.001 0-8.84-7.166-16.006-16.006-16.006-0.003 0-0.005 0-0.008 0h0zM16.007 2.275c2.361 0.004 4.583 0.599 6.526 1.644l-0.074-0.036-3.463 3.47c-0.89-0.317-1.916-0.5-2.986-0.5s-2.096 0.183-3.050 0.52l0.064-0.020-3.463-3.47c1.867-1.009 4.086-1.603 6.444-1.608h0.001zM3.897 22.452c-1.013-1.868-1.608-4.091-1.608-6.452s0.595-4.584 1.644-6.525l-0.036 0.073 3.463 3.47c-0.317 0.889-0.5 1.914-0.5 2.982s0.183 2.094 0.52 3.046l-0.020-0.064zM16.007 29.725c-2.359-0.005-4.578-0.599-6.519-1.644l0.074 0.036 3.463-3.47c0.89 0.317 1.916 0.5 2.986 0.5s2.096-0.183 3.050-0.52l-0.064 0.020 3.463 3.47c-1.869 1.009-4.091 1.604-6.451 1.608h-0.001zM16.007 22.859c-3.785-0.004-6.852-3.073-6.852-6.859 0-3.788 3.071-6.859 6.859-6.859s6.859 3.071 6.859 6.859v0c-0.001 3.788-3.072 6.859-6.861 6.859-0.002 0-0.003 0-0.005 0h0zM24.661 18.983c0.313-0.889 0.494-1.915 0.494-2.983s-0.181-2.093-0.513-3.047l0.020 0.065 3.463-3.47c1.013 1.868 1.608 4.091 1.608 6.452s-0.595 4.584-1.644 6.525l0.036-0.073z"></path>
    </symbol>
    <symbol id="icon_tw" viewBox="0 0 40 32">
      <path d="M39.35 0.583c-1.521 0.907-3.291 1.594-5.176 1.959l-0.104 0.017c-1.531-1.579-3.671-2.559-6.041-2.559-0.008 0-0.016 0-0.024 0h0.001c-0.033-0-0.071-0.001-0.11-0.001-4.488 0-8.134 3.605-8.201 8.077l-0 0.006c0 0.656 0.079 1.294 0.227 1.905l-0.011-0.055c-6.882-0.339-12.955-3.539-17.099-8.428l-0.029-0.035c-0.707 1.164-1.125 2.572-1.125 4.077 0 2.813 1.461 5.284 3.665 6.698l0.032 0.019c-1.385-0.047-2.674-0.416-3.807-1.036l0.045 0.022v0.101c0.037 3.943 2.872 7.213 6.613 7.922l0.051 0.008c-0.657 0.176-1.411 0.277-2.188 0.279h-0.001c-0.004 0-0.009 0-0.013 0-0.549 0-1.086-0.055-1.604-0.161l0.051 0.009c1.14 3.267 4.174 5.578 7.755 5.625l0.006 0c-2.872 2.152-6.496 3.446-10.421 3.446-0.662 0-1.316-0.037-1.959-0.108l0.079 0.007c3.612 2.274 8.005 3.623 12.713 3.623 0.009 0 0.018 0 0.028 0h-0.001c0.149 0.003 0.326 0.005 0.502 0.005 12.726 0 23.052-10.272 23.139-22.977l0-0.008-0.028-1.064c1.64-1.135 3.019-2.514 4.118-4.102l0.035-0.053c-1.389 0.606-3.001 1.052-4.686 1.258l-0.085 0.008c1.708-1.005 2.998-2.565 3.636-4.427l0.017-0.058z"></path>
    </symbol>
  </defs>
</svg>
