<svg xmlns="http://www.w3.org/2000/svg" width="52.812" height="39.75"><path id="fa-code" d="M797.6 1088.72a.927.927 0 000-1.33L786.254 1076l11.345-11.39a.939.939 0 000-1.34l-1.444-1.44a.916.916 0 00-1.328 0l-13.452 13.5a.939.939 0 000 1.34l13.452 13.5a.916.916 0 001.328 0zm17.06-30.92a.936.936 0 00-.635-1.16l-1.79-.5a.926.926 0 00-1.126.64l-10.767 37.42a.94.94 0 00.635 1.16l1.79.49a.911.911 0 001.126-.63zm18.966 18.87a.939.939 0 000-1.34l-13.452-13.5a.916.916 0 00-1.328 0l-1.444 1.44a.939.939 0 000 1.34l11.344 11.39-11.346 11.39a.927.927 0 000 1.33l1.444 1.45a.916.916 0 001.328 0z" transform="translate(-781.094 -1056.13)" fill="#c0301c" fill-rule="evenodd"/></svg>