<svg xmlns="http://www.w3.org/2000/svg" width="48" height="47.96"><path id="fa-support" d="M1196.99 1051.87a24 24 0 1024 23.99 23.989 23.989 0 00-24-23.99zm0 3.42a20.734 20.734 0 019.67 2.41l-5.19 5.2a13.725 13.725 0 00-8.95 0l-5.19-5.2a20.725 20.725 0 019.66-2.41zm-18.15 30.24a20.605 20.605 0 010-19.34l5.19 5.2a13.7 13.7 0 000 8.94zm18.15 10.9a20.725 20.725 0 01-9.66-2.41l5.19-5.2a13.725 13.725 0 008.95 0l5.19 5.2a20.734 20.734 0 01-9.67 2.41zm0-10.29a10.28 10.28 0 1110.29-10.28 10.283 10.283 0 01-10.29 10.28zm12.97-5.81a13.871 13.871 0 000-8.94l5.19-5.2a20.605 20.605 0 010 19.34z" transform="translate(-1173 -1051.88)" fill="#c0301c" fill-rule="evenodd"/></svg>